{
    "asset": {
        "generator": "COLLADA2GLTF",
        "version": "2.0"
    },
    "scenes": [
        {
            "nodes": [
                0
            ]
        }
    ],
    "scene": 0,
    "nodes": [
        {
            "children": [
                1
            ],
            "matrix": [
                1.0,
                0.0,
                0.0,
                0.0,
                0.0,
                0.0,
                -1.0,
                0.0,
                0.0,
                1.0,
                0.0,
                0.0,
                0.0,
                0.0,
                0.0,
                1.0
            ],
            "name": "Z_UP"
        },
        {
            "mesh": 0,
            "children": [
                12,
                11,
                10,
                9,
                8,
                7,
                6,
                5,
                4,
                3,
                2
            ],
            "name": "SketchUp"
        },
        {
            "matrix": [
                0.9933184385299684,
                0.11540549993515016,
                -1.3877789462175686e-17,
                0.0,
                -0.06525187939405441,
                0.5616363286972046,
                0.8248072266578674,
                0.0,
                0.0951872691512108,
                -0.8192961812019348,
                0.5654141306877136,
                0.0,
                65.94851684570313,
                -433.42431640625,
                401.328369140625,
                1.0
            ],
            "camera": 0,
            "name": "skp_camera_Last_Saved_SketchUp_View"
        },
        {
            "mesh": 1
        },
        {
            "mesh": 2
        },
        {
            "mesh": 3
        },
        {
            "mesh": 4
        },
        {
            "mesh": 5
        },
        {
            "mesh": 6
        },
        {
            "mesh": 7
        },
        {
            "mesh": 8
        },
        {
            "mesh": 9
        },
        {
            "mesh": 10
        }
    ],
    "cameras": [
        {
            "perspective": {
                "yfov": 0.6108646988868713,
                "zfar": 25.399999618530278,
                "znear": 0.02539999969303608
            },
            "type": "perspective",
            "name": "skp_camera_Last_Saved_SketchUp_View"
        }
    ],
    "meshes": [
        {
            "primitives": [
                {
                    "attributes": {
                        "NORMAL": 1,
                        "POSITION": 2
                    },
                    "indices": 0,
                    "mode": 4,
                    "material": 0
                }
            ],
            "name": "ID3"
        },
        {
            "primitives": [
                {
                    "attributes": {
                        "POSITION": 4
                    },
                    "indices": 3,
                    "mode": 1,
                    "material": 1
                }
            ],
            "name": "ID72"
        },
        {
            "primitives": [
                {
                    "attributes": {
                        "POSITION": 6
                    },
                    "indices": 5,
                    "mode": 1,
                    "material": 2
                }
            ],
            "name": "ID66"
        },
        {
            "primitives": [
                {
                    "attributes": {
                        "NORMAL": 8,
                        "POSITION": 9
                    },
                    "indices": 7,
                    "mode": 4,
                    "material": 3
                }
            ],
            "name": "ID60"
        },
        {
            "primitives": [
                {
                    "attributes": {
                        "NORMAL": 11,
                        "POSITION": 12
                    },
                    "indices": 10,
                    "mode": 4,
                    "material": 4
                }
            ],
            "name": "ID54"
        },
        {
            "primitives": [
                {
                    "attributes": {
                        "NORMAL": 14,
                        "POSITION": 15
                    },
                    "indices": 13,
                    "mode": 4,
                    "material": 5
                }
            ],
            "name": "ID48"
        },
        {
            "primitives": [
                {
                    "attributes": {
                        "NORMAL": 17,
                        "POSITION": 18
                    },
                    "indices": 16,
                    "mode": 4,
                    "material": 6
                }
            ],
            "name": "ID42"
        },
        {
            "primitives": [
                {
                    "attributes": {
                        "NORMAL": 20,
                        "POSITION": 21
                    },
                    "indices": 19,
                    "mode": 4,
                    "material": 7
                }
            ],
            "name": "ID36"
        },
        {
            "primitives": [
                {
                    "attributes": {
                        "NORMAL": 23,
                        "POSITION": 24,
                        "TEXCOORD_0": 25
                    },
                    "indices": 22,
                    "mode": 4,
                    "material": 8
                }
            ],
            "name": "ID23"
        },
        {
            "primitives": [
                {
                    "attributes": {
                        "NORMAL": 27,
                        "POSITION": 28
                    },
                    "indices": 26,
                    "mode": 4,
                    "material": 9
                }
            ],
            "name": "ID17"
        },
        {
            "primitives": [
                {
                    "attributes": {
                        "NORMAL": 30,
                        "POSITION": 31
                    },
                    "indices": 29,
                    "mode": 4,
                    "material": 10
                }
            ],
            "name": "ID11"
        }
    ],
    "accessors": [
        {
            "bufferView": 0,
            "byteOffset": 0,
            "componentType": 5123,
            "count": 1230,
            "max": [
                533
            ],
            "min": [
                0
            ],
            "type": "SCALAR"
        },
        {
            "bufferView": 1,
            "byteOffset": 0,
            "componentType": 5126,
            "count": 534,
            "max": [
                1.0,
                1.0,
                1.0
            ],
            "min": [
                -1.0,
                -1.0,
                -1.0
            ],
            "type": "VEC3"
        },
        {
            "bufferView": 1,
            "byteOffset": 6408,
            "componentType": 5126,
            "count": 534,
            "max": [
                55.11050796508789,
                46.701507568359378,
                38.00000381469727
            ],
            "min": [
                -53.88950347900391,
                -52.29850006103516,
                7.000001430511475
            ],
            "type": "VEC3"
        },
        {
            "bufferView": 0,
            "byteOffset": 2460,
            "componentType": 5123,
            "count": 2,
            "max": [
                1
            ],
            "min": [
                0
            ],
            "type": "SCALAR"
        },
        {
            "bufferView": 1,
            "byteOffset": 12816,
            "componentType": 5126,
            "count": 2,
            "max": [
                52.00899124145508,
                -49.29848098754883,
                38.00000381469727
            ],
            "min": [
                52.00899124145508,
                -49.29848098754883,
                7.999999046325684
            ],
            "type": "VEC3"
        },
        {
            "bufferView": 0,
            "byteOffset": 2464,
            "componentType": 5123,
            "count": 2,
            "max": [
                1
            ],
            "min": [
                0
            ],
            "type": "SCALAR"
        },
        {
            "bufferView": 1,
            "byteOffset": 12840,
            "componentType": 5126,
            "count": 2,
            "max": [
                97.17430114746094,
                -132.29849243164066,
                0.0
            ],
            "min": [
                89.1742935180664,
                -132.29849243164066,
                0.0
            ],
            "type": "VEC3"
        },
        {
            "bufferView": 0,
            "byteOffset": 2468,
            "componentType": 5123,
            "count": 24,
            "max": [
                15
            ],
            "min": [
                0
            ],
            "type": "SCALAR"
        },
        {
            "bufferView": 1,
            "byteOffset": 12864,
            "componentType": 5126,
            "count": 16,
            "max": [
                1.0,
                -0.0,
                1.0
            ],
            "min": [
                -1.0,
                -0.0,
                -1.0
            ],
            "type": "VEC3"
        },
        {
            "bufferView": 1,
            "byteOffset": 13056,
            "componentType": 5126,
            "count": 16,
            "max": [
                -26.38950920104981,
                46.701507568359378,
                31.199989318847658
            ],
            "min": [
                -38.48948669433594,
                43.70151519775391,
                16.200000762939454
            ],
            "type": "VEC3"
        },
        {
            "bufferView": 0,
            "byteOffset": 2516,
            "componentType": 5123,
            "count": 24,
            "max": [
                15
            ],
            "min": [
                0
            ],
            "type": "SCALAR"
        },
        {
            "bufferView": 1,
            "byteOffset": 13248,
            "componentType": 5126,
            "count": 16,
            "max": [
                1.0,
                0.0,
                1.0
            ],
            "min": [
                -1.0,
                0.0,
                -1.0
            ],
            "type": "VEC3"
        },
        {
            "bufferView": 1,
            "byteOffset": 13440,
            "componentType": 5126,
            "count": 16,
            "max": [
                26.010515213012697,
                46.701507568359378,
                31.199989318847658
            ],
            "min": [
                16.910503387451173,
                43.70151519775391,
                16.200000762939454
            ],
            "type": "VEC3"
        },
        {
            "bufferView": 0,
            "byteOffset": 2564,
            "componentType": 5123,
            "count": 24,
            "max": [
                15
            ],
            "min": [
                0
            ],
            "type": "SCALAR"
        },
        {
            "bufferView": 1,
            "byteOffset": 13632,
            "componentType": 5126,
            "count": 16,
            "max": [
                1.0,
                -0.0,
                1.0
            ],
            "min": [
                -1.0,
                -0.0,
                -1.0
            ],
            "type": "VEC3"
        },
        {
            "bufferView": 1,
            "byteOffset": 13824,
            "componentType": 5126,
            "count": 16,
            "max": [
                -35.88948822021485,
                -49.29848098754883,
                31.199989318847658
            ],
            "min": [
                -45.889495849609378,
                -52.29850006103516,
                26.200000762939458
            ],
            "type": "VEC3"
        },
        {
            "bufferView": 0,
            "byteOffset": 2612,
            "componentType": 5123,
            "count": 24,
            "max": [
                15
            ],
            "min": [
                0
            ],
            "type": "SCALAR"
        },
        {
            "bufferView": 1,
            "byteOffset": 14016,
            "componentType": 5126,
            "count": 16,
            "max": [
                1.0,
                -0.0,
                1.0
            ],
            "min": [
                -1.0,
                -0.0,
                -1.0
            ],
            "type": "VEC3"
        },
        {
            "bufferView": 1,
            "byteOffset": 14208,
            "componentType": 5126,
            "count": 16,
            "max": [
                -15.689495086669922,
                -49.29848098754883,
                31.199989318847658
            ],
            "min": [
                -24.789493560791017,
                -52.29850006103516,
                16.200000762939454
            ],
            "type": "VEC3"
        },
        {
            "bufferView": 0,
            "byteOffset": 2660,
            "componentType": 5123,
            "count": 24,
            "max": [
                15
            ],
            "min": [
                0
            ],
            "type": "SCALAR"
        },
        {
            "bufferView": 1,
            "byteOffset": 14400,
            "componentType": 5126,
            "count": 16,
            "max": [
                1.0,
                0.0,
                1.0
            ],
            "min": [
                -1.0,
                0.0,
                -1.0
            ],
            "type": "VEC3"
        },
        {
            "bufferView": 1,
            "byteOffset": 14592,
            "componentType": 5126,
            "count": 16,
            "max": [
                2.71050500869751,
                46.701507568359378,
                31.199989318847658
            ],
            "min": [
                -6.38949728012085,
                43.70151519775391,
                26.200000762939458
            ],
            "type": "VEC3"
        },
        {
            "bufferView": 0,
            "byteOffset": 2708,
            "componentType": 5123,
            "count": 132,
            "max": [
                45
            ],
            "min": [
                0
            ],
            "type": "SCALAR"
        },
        {
            "bufferView": 1,
            "byteOffset": 14784,
            "componentType": 5126,
            "count": 46,
            "max": [
                9.784215878332842e-17,
                1.2913759758209637e-16,
                1.0
            ],
            "min": [
                9.784215878332842e-17,
                1.2913759758209637e-16,
                1.0
            ],
            "type": "VEC3"
        },
        {
            "bufferView": 1,
            "byteOffset": 15336,
            "componentType": 5126,
            "count": 46,
            "max": [
                52.00899124145508,
                43.70151519775391,
                7.999999046325684
            ],
            "min": [
                -50.88948440551758,
                -49.29848098754883,
                7.999999046325684
            ],
            "type": "VEC3"
        },
        {
            "bufferView": 2,
            "byteOffset": 0,
            "componentType": 5126,
            "count": 46,
            "max": [
                222.9305877685547,
                -135.15489196777345
            ],
            "min": [
                54.13385772705078,
                -287.7138977050781
            ],
            "type": "VEC2"
        },
        {
            "bufferView": 0,
            "byteOffset": 2972,
            "componentType": 5123,
            "count": 240,
            "max": [
                113
            ],
            "min": [
                0
            ],
            "type": "SCALAR"
        },
        {
            "bufferView": 1,
            "byteOffset": 15888,
            "componentType": 5126,
            "count": 114,
            "max": [
                1.0,
                1.0,
                1.0
            ],
            "min": [
                -1.0,
                -1.0,
                -1.0
            ],
            "type": "VEC3"
        },
        {
            "bufferView": 1,
            "byteOffset": 17256,
            "componentType": 5126,
            "count": 114,
            "max": [
                75.1104965209961,
                46.701507568359378,
                36.96099090576172
            ],
            "min": [
                55.11050796508789,
                -52.29850006103516,
                -1.1550584266991054e-14
            ],
            "type": "VEC3"
        },
        {
            "bufferView": 0,
            "byteOffset": 3452,
            "componentType": 5123,
            "count": 24,
            "max": [
                15
            ],
            "min": [
                0
            ],
            "type": "SCALAR"
        },
        {
            "bufferView": 1,
            "byteOffset": 18624,
            "componentType": 5126,
            "count": 16,
            "max": [
                1.0,
                -0.0,
                1.0
            ],
            "min": [
                -1.0,
                -0.0,
                -1.0
            ],
            "type": "VEC3"
        },
        {
            "bufferView": 1,
            "byteOffset": 18816,
            "componentType": 5126,
            "count": 16,
            "max": [
                40.11051177978516,
                46.701507568359378,
                31.199989318847658
            ],
            "min": [
                31.010507583618165,
                43.70151519775391,
                16.200000762939454
            ],
            "type": "VEC3"
        }
    ],
    "materials": [
        {
            "pbrMetallicRoughness": {
                "baseColorFactor": [
                    1.0,
                    1.0,
                    1.0,
                    1.0
                ],
                "metallicFactor": 0.0
            },
            "name": "ID4"
        },
        {
            "pbrMetallicRoughness": {
                "baseColorFactor": [
                    1.0,
                    1.0,
                    1.0,
                    1.0
                ],
                "metallicFactor": 0.0
            },
            "name": "ID68"
        },
        {
            "pbrMetallicRoughness": {
                "baseColorFactor": [
                    1.0,
                    1.0,
                    1.0,
                    1.0
                ],
                "metallicFactor": 0.0
            },
            "name": "ID68"
        },
        {
            "pbrMetallicRoughness": {
                "baseColorFactor": [
                    1.0,
                    1.0,
                    1.0,
                    1.0
                ],
                "metallicFactor": 0.0
            },
            "name": "ID4"
        },
        {
            "pbrMetallicRoughness": {
                "baseColorFactor": [
                    1.0,
                    1.0,
                    1.0,
                    1.0
                ],
                "metallicFactor": 0.0
            },
            "name": "ID4"
        },
        {
            "pbrMetallicRoughness": {
                "baseColorFactor": [
                    1.0,
                    1.0,
                    1.0,
                    1.0
                ],
                "metallicFactor": 0.0
            },
            "name": "ID4"
        },
        {
            "pbrMetallicRoughness": {
                "baseColorFactor": [
                    1.0,
                    1.0,
                    1.0,
                    1.0
                ],
                "metallicFactor": 0.0
            },
            "name": "ID4"
        },
        {
            "pbrMetallicRoughness": {
                "baseColorFactor": [
                    1.0,
                    1.0,
                    1.0,
                    1.0
                ],
                "metallicFactor": 0.0
            },
            "name": "ID4"
        },
        {
            "pbrMetallicRoughness": {
                "baseColorTexture": {
                    "index": 0
                },
                "metallicFactor": 0.0
            },
            "name": "ID25"
        },
        {
            "pbrMetallicRoughness": {
                "baseColorFactor": [
                    1.0,
                    1.0,
                    1.0,
                    1.0
                ],
                "metallicFactor": 0.0
            },
            "name": "ID4"
        },
        {
            "pbrMetallicRoughness": {
                "baseColorFactor": [
                    1.0,
                    1.0,
                    1.0,
                    1.0
                ],
                "metallicFactor": 0.0
            },
            "name": "ID4"
        }
    ],
    "textures": [
        {
            "sampler": 0,
            "source": 0
        }
    ],
    "images": [
        {
            "uri": "data:image/jpeg;base64,"
        }
    ],
    "samplers": [
        {
            "magFilter": 9729,
            "minFilter": 9986,
            "wrapS": 10497,
            "wrapT": 10497
        }
    ],
    "bufferViews": [
        {
            "buffer": 0,
            "byteOffset": 19376,
            "byteLength": 3500,
            "target": 34963
        },
        {
            "buffer": 0,
            "byteOffset": 0,
            "byteLength": 19008,
            "byteStride": 12,
            "target": 34962
        },
        {
            "buffer": 0,
            "byteOffset": 19008,
            "byteLength": 368,
            "byteStride": 8,
            "target": 34962
        }
    ],
    "buffers": [
        {
            "byteLength": 22876,
            "uri": "data:application/octet-stream;base64,"
        }
    ]
}
