<?xml version="1.0" standalone="no"?><!DOCTYPE svg PUBLIC "-//W3C//DTD SVG 1.1//EN" "http://www.w3.org/Graphics/SVG/1.1/DTD/svg11.dtd"><svg t="1491532287810" class="icon" style="" viewBox="0 0 1024 1024" version="1.1" xmlns="http://www.w3.org/2000/svg" p-id="20554" xmlns:xlink="http://www.w3.org/1999/xlink" width="16" height="16"><defs><style type="text/css"></style></defs><path d="M542.784 74.752l12.032 79.168 6.912 45.504 43.584 14.272c17.92 5.76 34.496 12.608 49.28 20.096l41.664 21.44 37.376-28.16 62.144-46.848c20.736 19.776 35.712 34.816 46.272 46.016-2.816 3.648-5.952 7.616-9.408 11.968-17.6 22.336-29.76 38.208-38.208 50.048l-26.56 37.184 21.184 40.576c9.408 18.24 16.896 36.16 22.144 53.056l13.952 44.608 46.144 7.104 78.08 11.904 0 61.824-78.592 11.968-44.352 6.656-14.976 42.24c-7.168 20.352-14.272 37.248-21.184 49.984l-21.952 40.64 26.432 37.696c12.096 17.344 28.48 38.912 49.216 64.832-8.64 9.28-19.776 20.8-34.368 35.264-4.544 4.48-8.704 8.32-12.224 11.776l-61.312-48-38.016-29.632-42.624 22.272c-15.808 8.32-32.128 15.04-48.64 20.288l-45.952 14.592-5.696 47.808c-3.968 34.24-7.424 58.88-10.304 76.672L481.088 949.568l-12.032-79.232-6.848-45.376-43.584-14.336c-18.112-5.952-34.688-12.8-49.344-20.224l-41.792-21.44-37.44 28.352-61.632 46.912c-20.928-19.648-35.968-34.688-46.656-46.016 2.816-3.648 6.016-7.68 9.6-12.096 17.6-22.464 29.696-38.272 37.952-49.792l27.136-37.824L234.368 657.28C224.896 639.808 217.792 622.592 213.056 606.272L199.936 559.872 152.256 552.832 74.624 541.376 74.624 479.68 153.088 467.84l46.4-6.912 13.824-44.928C218.24 400.192 225.024 384.128 233.6 368.448l22.144-40.64L229.12 289.856C215.744 270.848 199.68 249.472 180.352 225.28 188.672 216.256 199.68 204.992 214.016 190.784c4.544-4.416 8.704-8.32 12.224-11.776l61.824 48 38.08 29.504 42.56-22.464C384.192 225.984 400.576 219.136 417.28 213.824l45.824-14.592 5.632-47.808c4.032-34.048 7.488-58.752 10.304-76.672l63.744 0M585.92 0.128 437.888 0.128c-12.8 0-20.8 6.144-24 18.624C408.128 40.896 401.728 82.24 394.56 142.72 373.824 149.312 353.472 157.76 333.952 168.064L241.92 96.704C236.16 92.288 230.4 89.984 224.64 89.984c-9.792 0-30.784 15.872-62.976 47.68C129.408 169.472 107.456 193.28 95.936 209.28c-3.968 5.824-5.952 10.944-5.952 15.36 0 5.312 2.24 10.688 6.656 16 29.76 36.032 53.568 66.688 71.36 92.032-11.136 20.48-19.776 40.896-26.048 61.312L17.984 412.736C13.12 413.632 8.896 416.448 5.248 421.44 1.792 426.24 0 431.36 0 436.736l0 148.032c0 5.76 1.792 11.008 5.312 15.616 3.584 4.672 8.32 7.488 14.016 8.384l122.048 17.984c6.208 21.824 15.36 43.776 27.264 65.984-8 11.072-19.968 26.752-35.968 46.976-16.064 20.096-27.392 34.944-34.048 44.224-3.52 4.928-5.312 10.048-5.312 15.36 0 5.824 1.472 10.944 4.608 15.36 17.408 24 54.016 61.248 110.08 111.936 4.8 4.864 10.432 7.296 16.64 7.296 6.592 0 12.16-1.856 16.576-5.888l94.016-71.36c18.176 9.408 38.272 17.472 59.968 24.704l18.688 122.688c0.384 5.696 2.944 10.56 7.616 14.4 4.672 3.776 10.176 5.568 16.32 5.568l148.096 0c12.928 0 20.864-6.208 24.064-18.624 5.696-22.272 12.16-63.488 19.264-124.032 20.928-6.592 41.152-15.04 60.608-25.28l92.096 71.936c6.144 4.032 12.096 6.016 17.408 6.016 9.728 0 30.592-15.808 62.528-47.296 32.064-31.488 54.144-55.552 66.112-72 3.968-4.416 6.016-9.536 6.016-15.36 0-5.76-2.304-11.328-6.72-16.64-32-39.04-55.744-69.76-71.296-91.968 8.96-16.512 17.536-36.736 25.984-60.608l123.392-18.688c5.312-0.896 9.792-3.776 13.376-8.768C1022.208 597.76 1024 592.64 1024 587.264l0-147.84c0-5.824-1.792-11.008-5.248-15.744-3.584-4.672-8.32-7.488-14.016-8.32l-122.112-18.688c-6.592-21.376-15.68-43.072-27.264-65.28 8-11.2 20.032-26.816 36.032-47.04 16.064-20.224 27.328-34.944 34.048-44.288 3.456-4.992 5.312-10.112 5.312-15.424 0-6.144-1.664-11.008-4.672-14.592-16.064-22.72-52.8-60.48-110.144-113.344-5.312-4.416-10.88-6.656-16.576-6.656-6.656 0-12.096 1.984-16.064 5.888L688.64 167.296c-18.24-9.344-38.336-17.536-60.032-24.704L609.92 19.968C609.472 14.336 606.976 9.408 602.304 5.76 597.568 1.92 592.128 0.128 585.92 0.128L585.92 0.128z" p-id="20555"></path><path d="M511.936 405.696c58.624 0 106.304 47.68 106.304 106.368S570.688 618.368 511.936 618.368 405.696 570.688 405.696 512.064 453.312 405.696 511.936 405.696M511.936 331.136c-99.968 0-180.992 81.024-180.992 180.928s81.088 180.928 180.992 180.928c99.968 0 180.992-81.024 180.992-180.928S612.032 331.136 511.936 331.136L511.936 331.136z" p-id="20556"></path></svg>